<?xml version="1.0" encoding="UTF-8" standalone="no"?>
<svg
   xmlns:dc="http://purl.org/dc/elements/1.1/"
   xmlns:cc="http://creativecommons.org/ns#"
   xmlns:rdf="http://www.w3.org/1999/02/22-rdf-syntax-ns#"
   xmlns:svg="http://www.w3.org/2000/svg"
   xmlns="http://www.w3.org/2000/svg"
   viewBox="0 0 2721.1333 2720.8799"
   height="2720.8799"
   width="2721.1333"
   xml:space="preserve"
   id="svg2"
   version="1.1"><metadata
     id="metadata8"><rdf:RDF><cc:Work
         rdf:about=""><dc:format>image/svg+xml</dc:format><dc:type
           rdf:resource="http://purl.org/dc/dcmitype/StillImage" /></cc:Work></rdf:RDF></metadata><defs
     id="defs6" /><g
     transform="matrix(1.3333333,0,0,-1.3333333,0,2720.88)"
     id="g10"><g
       transform="scale(0.1)"
       id="g12"><g
         transform="scale(1.25202)"
         id="g14"><path
           id="path16"
           style="fill:#538bd0;fill-opacity:1;fill-rule:nonzero;stroke:none"
           d="m 4273.73,8453 c -5.31,-264.5 95.38,-474.96 271.28,-651.15 726.31,-727.55 1453.83,-1453.89 2181.05,-2180.55 80.13,-80.12 168.93,-149.2 267.39,-205.59 266.67,-152.55 535.06,-155.67 804.97,-8.63 117.55,64.06 218.75,149.04 313.08,243.21 438.89,438.17 878.5,875.54 1317.23,1313.79 731.97,731.22 1463.67,1462.79 2195.27,2194.53 58.5,58.6 116.7,117.83 171.4,180.02 192.8,219.27 275.3,472.09 224.6,763.17 -91.9,527.9 -607.4,817.6 -1073.7,717 -194.6,-41.9 -351.9,-150.2 -490.3,-288.6 -811.3,-811.35 -1622.47,-1622.92 -2433.39,-2434.67 -166.38,-166.61 -330.17,-335.78 -498.05,-500.79 -96.96,-95.36 -152.73,-94.89 -242.49,3.91 -205.38,226.04 -431.98,430.66 -646.24,647.75 -277.2,280.83 -558.82,557.32 -839.1,835.09 -97.78,96.9 -210.9,170.06 -340.7,218.1 C 4999.92,9468.42 4273.69,9184.58 4273.73,8453 Z M 5769.77,1062.12 c -167.96,8.87 -350.34,-31.07 -534.44,-53.11 -187.59,-22.448 -375.24,-46.088 -564.2,-51.121 -462.82,-12.299 -802.91,186.741 -1018.4,597.751 -132.6,252.87 -244.38,515.09 -348.8,780.42 -182.63,464.13 -505.44,786.01 -969.42,968.03 -268.56,105.43 -534.53,216.85 -788.77,354.3 -135.51,73.25 -258.14,162.3 -354.21,284.51 -140.4,178.67 -200.182,386.25 -218.122,608.69 -16.901,209.58 8.305,417.16 30.192,624.91 21.87,207.66 52.49,414.93 61.69,623.23 15.64,353.9 -92.912,673.63 -305.449,956.37 -181.35,241.29 -361.517,483.22 -532.004,732.33 -98.375,143.77 -174.1521,297.44 -208.2999,469.4 -55.2855,278.51 9.7342,534.2 157.3639,769.88 139.09,222.06 288.692,437.51 455.812,639.65 142.706,172.6 266.072,355.37 339.593,568.84 99.374,288.6 110.904,584.8 71.304,883.6 -30.91,233.3 -66.736,465.8 -82.439,700.9 -8.898,133.1 -0.773,265.8 22.283,396.3 47.466,268.7 192.056,476.2 415.726,629.8 175.87,120.9 368.88,209.2 563.66,293.7 152.05,65.9 305.89,127.7 458.21,193 389.55,167.1 672.11,442.8 838.77,833.9 103.96,243.9 204.69,489.3 321.61,727.5 49.69,101.3 101.83,201 164.96,294.9 202.93,301.9 489.02,446.8 849.2,452.6 182.97,3 363.19,-29.1 544.61,-45.5 224.44,-20.4 448.21,-51 673.02,-63.8 329.66,-18.7 628.99,78.5 896.2,271 207.17,149.2 411.01,303 617.01,453.9 131.34,96.1 268.72,182.1 417.82,249.1 262.54,118 525.32,122.8 790.65,10.8 95.04,-40.1 186.49,-87 272.35,-143.6 215.98,-142.5 429.47,-288.9 627.07,-456.4 359.26,-304.5 776.18,-414.5 1239.78,-377.8 211.8,16.7 420.2,58 631.3,78.3 185.4,17.7 371.4,27 556.1,5.3 297.4,-34.9 528.7,-184.2 695.3,-431.7 141.4,-210.1 246,-439.3 338.2,-674.3 36.3,-92.6 67.4,-187.3 106.7,-278.5 205.8,-476.3 557,-800.6 1040.8,-981.3 258.2,-96.4 512,-201.8 750.7,-340.4 195.7,-113.6 361,-258.1 459.5,-468.1 75.1,-160 98.4,-329 94,-503.5 -5,-199.2 -35.8,-396 -53.5,-594 -15.4,-171.7 -37.1,-342.8 -50.4,-514.6 -29,-374.3 85.5,-705.2 308.1,-1003.69 176.4,-236.56 350.2,-475.07 522,-715.05 103.3,-144.33 175.3,-303.81 209,-479.51 37.9,-197.68 16.8,-389.37 -56.3,-575.94 -36.3,-92.97 -81.2,-181.95 -138.3,-263.73 -153.7,-220.29 -305.5,-441.85 -477.5,-648.79 -242,-291.45 -360.7,-628.43 -370.5,-1006.61 -5.3,-203.67 29.7,-402.79 54.1,-603.35 25.7,-210.54 54.1,-421.08 51.7,-633.85 -4.7,-426.67 -192.7,-743.76 -573.4,-939.92 -274.1,-141.21 -556.3,-265.81 -842.1,-381.78 -316.1,-128.35 -574.4,-327.39 -760.6,-615.8 -72.3,-111.9 -126.5,-232.75 -176.9,-355.67 -101.9,-248.55 -208.2,-495.03 -332.4,-733.53 -59.9,-115.41 -131.6,-222.36 -219.8,-318.12 -180.7,-196.25 -408.3,-287.775 -670.7,-303.749 -163.2,-9.906 -324.1,14.773 -485.8,29.471 -283.8,25.798 -566.4,64.938 -851.7,74.518 -311,10.46 -586.76,-91.132 -836.04,-269.961 C 9390.87,645.436 9189.92,493.201 8986.33,344.642 8865.72,256.625 8741.2,174.517 8606.14,109.504 8302.31,-36.6594 7999.53,-37.2178 7696.24,111.9 7468.56,223.797 7268.59,377.548 7065.67,526.828 6996.28,577.864 6929.94,633.134 6863.48,688.008 6551.43,945.59 6193.43,1070.67 5769.77,1062.12" /></g></g></g></svg>